<?xml version="1.0" standalone="no"?>
<!DOCTYPE svg PUBLIC "-//W3C//DTD SVG 20010904//EN"
 "http://www.w3.org/TR/2001/REC-SVG-20010904/DTD/svg10.dtd">
<svg version="1.0" xmlns="http://www.w3.org/2000/svg"
 width="900.000000pt" height="900.000000pt" viewBox="0 0 900.000000 900.000000"
 preserveAspectRatio="xMidYMid meet">

<g transform="translate(0.000000,900.000000) scale(0.100000,-0.100000)"
fill="#000000" stroke="none">
<path d="M4120 8915 c-199 -20 -428 -54 -546 -81 -119 -27 -137 -31 -199 -49
-33 -9 -73 -20 -90 -25 -16 -5 -55 -15 -85 -23 -312 -87 -751 -286 -1055 -480
-438 -279 -840 -640 -1129 -1012 -106 -138 -283 -394 -333 -483 -176 -314
-300 -583 -383 -832 -41 -125 -104 -337 -114 -385 -3 -16 -13 -61 -21 -100
-27 -119 -42 -210 -72 -425 -24 -179 -29 -655 -9 -871 9 -96 21 -205 26 -244
56 -393 171 -812 310 -1130 10 -22 28 -62 40 -90 67 -152 216 -427 317 -583
82 -126 272 -379 373 -496 265 -307 664 -649 991 -851 143 -88 211 -126 329
-185 87 -44 139 -69 270 -128 99 -44 238 -100 295 -117 33 -10 94 -28 135 -41
223 -69 477 -127 675 -154 44 -6 114 -16 155 -23 107 -17 877 -17 985 1 44 7
112 17 150 23 379 54 798 172 1105 311 138 63 185 85 284 135 253 126 549 326
857 577 173 141 476 465 628 671 41 55 86 116 100 135 15 19 53 76 85 125 32
50 67 102 77 117 11 15 19 29 19 32 0 3 13 27 29 54 62 105 160 293 194 372 8
19 29 65 46 103 17 37 31 70 31 73 0 3 7 22 16 42 25 57 31 72 57 147 30 85
70 214 87 275 7 25 16 56 21 70 4 14 15 57 24 95 50 220 63 295 97 545 17 128
17 807 0 945 -29 228 -38 283 -74 465 -9 47 -51 214 -78 315 -29 108 -116 355
-180 510 -33 79 -190 391 -245 485 -281 481 -661 919 -1085 1250 -130 101
-459 330 -474 330 -2 0 -39 21 -82 46 -156 92 -561 278 -699 321 -27 9 -81 26
-120 38 -38 12 -90 28 -115 35 -25 7 -65 18 -90 26 -219 63 -397 95 -755 134
-211 23 -575 25 -775 5z m700 -185 c187 -19 354 -40 400 -50 25 -6 110 -24
190 -40 146 -29 170 -35 270 -65 30 -9 69 -20 85 -25 138 -38 505 -187 645
-262 179 -96 234 -127 335 -192 446 -286 761 -573 1113 -1016 72 -90 292 -418
292 -435 0 -3 15 -29 33 -58 30 -47 133 -252 170 -337 8 -19 24 -55 35 -80
114 -257 219 -610 273 -915 31 -174 48 -326 59 -530 6 -104 13 -195 14 -200 2
-6 0 -94 -5 -195 -16 -338 -65 -653 -152 -970 -22 -77 -102 -320 -128 -383
-11 -28 -25 -61 -29 -72 -99 -243 -246 -517 -403 -752 -252 -377 -583 -733
-907 -978 -36 -27 -67 -52 -70 -55 -3 -3 -43 -33 -90 -66 -270 -194 -564 -354
-880 -481 -47 -19 -94 -38 -105 -43 -24 -10 -206 -69 -325 -104 -136 -40 -309
-79 -425 -96 -33 -5 -121 -18 -195 -29 -74 -11 -226 -25 -337 -32 -281 -17
-514 -2 -923 61 -63 10 -125 22 -225 45 -111 26 -137 32 -195 50 -30 9 -68 20
-85 24 -36 10 -212 69 -240 81 -11 5 -67 27 -125 50 -140 56 -401 183 -525
257 -519 308 -926 672 -1280 1147 -80 107 -235 339 -235 351 0 3 -15 30 -34
60 -45 69 -206 397 -246 500 -17 44 -35 89 -39 100 -18 40 -60 162 -86 250
-15 50 -30 101 -35 115 -10 29 -43 164 -63 265 -68 324 -87 524 -87 909 0 306
11 460 46 656 8 47 19 110 24 140 8 52 62 268 94 375 44 154 67 218 155 440
36 90 145 312 203 414 26 46 48 85 48 87 0 2 32 53 71 114 172 271 334 476
551 698 191 195 348 329 613 523 60 44 252 169 258 169 3 0 41 21 84 47 62 37
285 148 408 203 180 81 535 196 725 234 47 10 103 22 125 26 122 27 258 46
485 69 125 12 549 13 670 1z"/>
<path d="M4439 8133 c-5 -13 -9 -54 -9 -89 0 -36 -4 -107 -10 -157 -12 -116
-39 -443 -42 -522 l-3 -60 80 -6 c44 -3 83 -3 87 0 4 3 13 65 20 137 l12 131
38 32 c21 18 42 30 47 27 5 -3 68 -86 140 -185 146 -198 132 -188 263 -192 38
-1 70 0 73 3 3 3 -75 113 -174 244 -172 228 -179 240 -163 258 9 10 99 88 200
174 100 85 182 159 182 162 0 4 -33 10 -72 14 -40 4 -87 9 -103 12 -28 5 -47
-9 -213 -151 -100 -86 -187 -153 -193 -150 -6 4 -8 26 -5 53 16 134 25 267 18
273 -4 4 -42 9 -85 11 -76 5 -79 4 -88 -19z"/>
<path d="M3670 8055 c-89 -14 -155 -49 -220 -114 -137 -138 -167 -340 -76
-520 71 -140 229 -241 376 -241 144 0 291 93 369 234 21 36 21 39 4 52 -10 7
-21 14 -26 14 -4 0 -26 12 -49 26 l-42 27 -18 -24 c-59 -77 -83 -100 -130
-123 -123 -62 -269 -5 -333 129 -64 137 -3 304 132 360 45 19 150 19 183 0 14
-8 30 -14 37 -15 7 0 27 29 44 65 36 75 33 83 -34 108 -69 26 -146 34 -217 22z"/>
<path d="M5635 7957 c-7 -12 -32 -69 -55 -127 -22 -58 -44 -114 -49 -125 -5
-11 -26 -63 -46 -115 -43 -110 -38 -98 -105 -263 -29 -70 -50 -133 -47 -140 2
-7 31 -23 63 -36 33 -12 68 -27 79 -32 75 -33 331 -129 338 -126 10 3 57 113
57 132 0 6 -69 38 -152 71 -169 65 -172 68 -143 138 24 56 32 78 39 99 3 9 12
17 20 17 8 0 74 -23 146 -51 72 -28 133 -50 135 -48 8 8 55 122 55 133 0 7
-60 36 -132 65 -73 30 -137 57 -141 61 -13 12 38 135 58 138 9 2 36 -4 59 -13
22 -10 50 -21 61 -25 11 -4 31 -12 45 -18 53 -23 153 -62 155 -59 0 1 9 22 19
47 10 25 22 53 27 62 14 27 11 48 -6 48 -8 0 -23 4 -33 10 -9 5 -64 28 -122
50 -108 42 -143 56 -172 71 -10 5 -22 9 -28 9 -6 0 -33 11 -60 24 l-51 24 -14
-21z"/>
<path d="M2537 7580 c-113 -44 -188 -115 -239 -226 -19 -42 -22 -67 -23 -169
0 -116 1 -122 33 -188 67 -136 191 -228 343 -257 160 -29 342 60 416 204 126
247 12 541 -247 636 -73 27 -215 27 -283 0z m248 -178 c94 -48 154 -145 155
-248 1 -232 -254 -324 -420 -153 -71 73 -98 192 -64 275 43 104 125 158 229
151 34 -2 78 -13 100 -25z"/>
<path d="M6458 7516 c-21 -30 -38 -59 -38 -65 0 -6 36 -38 80 -71 44 -33 80
-63 80 -65 0 -3 -90 -125 -201 -271 -110 -146 -202 -271 -204 -277 -4 -12 114
-107 131 -107 5 1 85 103 179 228 188 252 236 312 247 312 3 0 43 -28 88 -61
45 -34 85 -58 89 -53 44 52 81 104 81 115 -1 15 -452 359 -479 365 -10 3 -30
-16 -53 -50z"/>
<path d="M1668 6775 c-20 -7 -48 -21 -62 -31 -31 -20 -259 -312 -260 -333 -1
-13 108 -101 483 -389 139 -107 174 -132 182 -132 11 0 99 118 99 132 0 7 -48
49 -107 93 -58 44 -117 89 -131 101 l-26 21 23 31 22 32 221 2 222 3 57 70
c32 39 58 76 59 83 0 11 -43 13 -217 11 l-218 -2 -6 64 c-7 87 -32 141 -89
192 -72 65 -165 84 -252 52z m139 -187 c26 -29 34 -64 23 -93 -9 -25 -95 -140
-111 -150 -11 -7 -139 91 -139 107 0 12 49 78 94 126 38 41 100 45 133 10z"/>
<path d="M7169 6767 c-57 -21 -106 -65 -130 -115 -37 -75 -28 -151 36 -302 50
-119 51 -165 5 -190 -70 -37 -190 76 -190 179 0 22 5 43 10 46 23 14 6 36 -57
69 -37 20 -72 36 -78 36 -23 0 -40 -66 -39 -150 0 -73 5 -94 30 -145 31 -63
114 -154 165 -181 44 -22 119 -44 155 -44 38 0 113 25 139 48 11 9 34 35 50
56 27 35 30 47 30 111 0 40 -5 83 -12 96 -11 24 -28 67 -64 164 -25 65 -25
127 -1 148 26 24 93 22 125 -3 50 -40 72 -81 77 -148 l5 -64 70 -23 c44 -15
74 -20 80 -14 5 5 9 46 8 92 0 68 -5 92 -28 141 -33 68 -102 141 -165 175 -55
29 -167 38 -221 18z"/>
<path d="M4330 6568 c-204 -25 -375 -161 -462 -368 -31 -74 -31 -77 -36 -282
-5 -256 -16 -266 -87 -78 -7 19 -37 87 -65 150 -28 63 -55 126 -59 140 -5 14
-25 60 -45 103 -37 79 -60 99 -99 89 -39 -10 -41 -37 -28 -376 7 -179 10 -330
6 -336 -4 -6 -27 11 -58 43 -71 72 -178 155 -264 205 -39 23 -74 42 -77 42 -3
0 -29 11 -58 24 -117 53 -313 96 -437 96 -88 0 -91 -2 -151 -98 -77 -123 -149
-319 -169 -455 -15 -106 -14 -306 3 -397 38 -211 135 -416 280 -590 25 -30 46
-58 46 -62 0 -4 -11 -42 -24 -85 -13 -43 -27 -93 -31 -110 -8 -40 -17 -41
-115 -9 -41 13 -97 29 -125 36 -27 7 -85 24 -128 37 -86 27 -118 25 -134 -9
-21 -46 -24 -44 338 -322 75 -57 139 -111 142 -119 3 -8 8 -36 12 -63 3 -27
20 -96 37 -153 l31 -105 -34 -29 c-19 -15 -65 -53 -104 -82 -38 -30 -108 -83
-155 -119 -47 -37 -125 -97 -175 -135 -49 -38 -100 -79 -112 -90 -30 -29 -30
-66 1 -86 26 -17 49 -12 291 59 209 61 359 104 462 132 18 5 30 -2 55 -32 58
-68 176 -182 246 -237 87 -69 310 -217 327 -217 3 0 42 -18 87 -39 100 -47
221 -94 303 -116 33 -9 78 -23 100 -30 38 -12 199 -41 365 -65 98 -14 453 -14
550 0 274 40 411 72 588 136 87 31 249 103 282 124 8 5 38 22 65 36 101 54
348 243 400 307 11 13 43 50 72 82 l52 58 83 -23 c46 -12 132 -38 192 -56 60
-19 114 -34 120 -34 6 0 47 -11 91 -25 193 -59 257 -74 282 -62 13 6 26 22 30
35 9 37 -12 55 -445 382 -47 36 -101 79 -121 96 l-35 31 21 69 c27 89 53 203
53 231 0 23 16 37 201 180 254 197 288 225 294 244 9 27 -20 69 -48 69 -12 0
-51 -9 -87 -21 -36 -11 -96 -28 -135 -38 -38 -10 -102 -28 -141 -41 -79 -25
-104 -22 -104 13 0 12 -11 62 -25 110 -14 48 -22 93 -19 100 4 7 28 37 54 67
122 147 201 303 248 490 24 95 26 123 26 290 0 167 -3 195 -27 294 -15 60 -31
114 -36 120 -4 6 -18 38 -31 71 -26 66 -78 159 -124 219 l-30 39 -110 -6
c-282 -13 -574 -140 -774 -337 -39 -39 -76 -70 -81 -70 -8 0 -9 107 -4 344 l6
343 -27 18 c-26 17 -28 17 -52 -1 -16 -12 -45 -66 -80 -149 -30 -71 -68 -159
-84 -195 -16 -36 -37 -85 -46 -110 -10 -25 -23 -54 -30 -65 -6 -11 -17 -37
-24 -58 -24 -78 -35 -37 -41 164 -4 107 -11 210 -17 229 -26 89 -34 107 -72
171 -73 122 -229 234 -365 260 -70 14 -305 18 -395 7z m366 -122 c163 -35 298
-158 344 -315 18 -62 19 -97 17 -606 l-2 -540 -35 -70 c-64 -130 -87 -161
-159 -210 -99 -68 -170 -85 -351 -85 -285 0 -396 58 -505 262 l-50 93 -1 550
c0 503 1 555 18 610 22 75 50 121 111 184 61 63 142 109 221 126 79 17 314 18
392 1z m743 -706 c-4 -96 -7 -246 -8 -332 l-1 -157 26 -20 c25 -19 45 -19 72
2 7 6 12 34 12 73 0 50 3 64 15 64 22 0 159 -108 273 -216 192 -181 373 -437
452 -639 13 -33 27 -65 31 -70 9 -12 47 -142 60 -205 5 -25 12 -53 15 -62 6
-22 -13 -32 -112 -58 -203 -54 -275 -80 -286 -106 -13 -27 3 -68 29 -78 8 -3
53 5 101 19 122 35 329 93 377 106 22 6 58 17 80 25 46 16 65 18 65 6 0 -6
-80 -71 -209 -167 -209 -156 -322 -250 -327 -270 -7 -30 10 -62 38 -71 12 -3
54 -32 94 -63 40 -31 154 -119 253 -196 109 -84 175 -141 166 -143 -9 -2 -57
8 -108 23 -51 15 -130 38 -177 51 -47 13 -132 37 -190 53 -122 35 -137 37
-162 14 -39 -35 -9 -94 53 -107 16 -3 29 -11 29 -18 0 -7 -27 -40 -59 -74
-261 -274 -652 -471 -1091 -553 -224 -41 -583 -50 -775 -18 -187 31 -270 47
-310 61 -22 8 -74 24 -115 36 -41 12 -99 33 -128 46 -29 13 -55 24 -57 24 -11
0 -127 57 -200 99 -78 44 -141 86 -220 146 -60 46 -235 217 -235 231 0 6 20
19 45 28 63 25 74 77 22 110 -17 11 -68 1 -197 -39 -41 -13 -104 -31 -140 -40
-36 -9 -109 -30 -162 -46 -158 -49 -158 -39 -2 81 75 58 160 123 188 146 113
90 182 140 208 151 31 14 45 52 30 80 -6 11 -64 59 -129 108 -65 49 -120 92
-123 95 -3 4 -30 25 -60 47 -215 161 -250 192 -199 180 70 -17 391 -109 500
-143 42 -13 81 -24 88 -24 19 0 51 39 51 63 0 31 -24 51 -80 66 -25 6 -81 22
-125 35 -44 13 -106 31 -137 40 -58 17 -58 17 -58 55 0 68 83 313 143 421 11
19 31 57 45 84 88 174 344 468 519 597 32 24 70 54 85 68 15 13 31 22 34 18 4
-3 9 -32 11 -64 3 -32 9 -65 14 -74 15 -28 49 -30 75 -4 l23 23 -6 332 c-5
257 -4 332 6 329 11 -4 27 -40 105 -229 12 -30 30 -71 39 -90 9 -19 35 -78 58
-130 l43 -95 6 -215 7 -215 35 -82 c79 -182 229 -310 406 -348 94 -19 361 -20
451 -1 194 42 372 209 427 401 12 42 19 118 24 255 6 170 9 203 29 255 13 33
27 65 31 70 5 6 22 44 38 85 17 41 37 89 46 105 9 17 16 34 16 38 0 5 14 38
30 74 17 35 30 66 30 67 0 2 7 21 16 42 25 61 30 25 23 -166z m-2563 -296 c32
-8 86 -29 119 -46 58 -30 155 -95 155 -104 0 -3 -39 -44 -87 -92 -103 -104
-220 -249 -288 -355 -26 -42 -52 -77 -57 -77 -10 0 -54 89 -74 150 -9 25 -18
96 -21 157 -7 134 10 219 64 327 l34 68 48 -6 c26 -3 74 -13 107 -22z m3431
-7 c12 -17 36 -75 54 -127 29 -84 33 -107 32 -200 0 -91 -4 -118 -32 -200 -31
-93 -54 -140 -69 -140 -4 0 -25 28 -47 63 -72 114 -181 251 -279 351 -53 54
-96 104 -96 110 0 23 142 112 215 136 53 18 144 38 175 39 18 1 31 -9 47 -32z
m-3614 -1748 c20 -17 37 -36 37 -42 -1 -16 -48 -50 -60 -42 -10 6 -30 70 -30
98 0 24 10 22 53 -14z m3677 14 c0 -20 -23 -89 -32 -99 -10 -9 -57 29 -57 46
0 14 64 69 82 70 4 0 7 -8 7 -17z"/>
<path d="M4335 6133 c-34 -9 -55 -35 -55 -68 0 -54 6 -55 227 -55 190 0 203 1
213 19 16 31 12 66 -11 87 -19 17 -39 19 -188 21 -91 1 -175 -1 -186 -4z"/>
<path d="M4072 6106 c-21 -27 -19 -67 3 -86 7 -6 37 -10 66 -8 46 3 55 7 69
31 13 24 13 30 0 55 -13 23 -23 27 -67 30 -44 3 -53 0 -71 -22z"/>
<path d="M4812 6118 c-16 -16 -16 -80 0 -96 7 -7 35 -12 63 -12 28 0 56 5 63
12 18 18 14 73 -6 91 -22 20 -102 23 -120 5z"/>
<path d="M4075 5735 c-52 -51 -19 -109 61 -107 77 1 107 50 63 106 -28 36 -89
37 -124 1z"/>
<path d="M4307 5748 c-29 -22 -40 -67 -23 -93 13 -19 28 -24 89 -30 41 -4 131
-6 201 -4 113 4 128 6 147 26 26 25 21 61 -13 93 -20 19 -35 20 -203 20 -129
0 -186 -4 -198 -12z"/>
<path d="M4823 5745 c-12 -8 -24 -29 -28 -46 -10 -45 19 -72 78 -73 78 -2 110
51 66 108 -24 30 -80 36 -116 11z"/>
<path d="M4075 5355 c-51 -50 -18 -110 60 -110 76 0 108 53 64 109 -28 36 -89
37 -124 1z"/>
<path d="M4307 5368 c-9 -7 -21 -28 -26 -45 -8 -26 -6 -37 9 -55 17 -22 26
-23 176 -26 196 -5 237 1 259 34 14 22 15 31 4 55 -6 17 -20 34 -30 39 -28 15
-371 13 -392 -2z"/>
<path d="M4823 5365 c-32 -23 -40 -73 -15 -98 29 -28 105 -29 133 0 42 42 1
113 -66 113 -17 0 -40 -7 -52 -15z"/>
<path d="M4075 4975 c-30 -29 -32 -65 -7 -88 26 -24 113 -23 135 1 63 69 -62
154 -128 87z"/>
<path d="M4307 4988 c-9 -7 -21 -28 -26 -46 -8 -27 -7 -36 10 -53 17 -17 34
-19 212 -19 175 0 196 2 215 19 29 24 28 52 -3 85 l-24 26 -184 0 c-131 0
-188 -4 -200 -12z"/>
<path d="M4823 4985 c-29 -20 -38 -62 -18 -91 13 -20 24 -24 69 -24 40 0 57 5
71 20 20 22 14 63 -12 93 -20 21 -80 23 -110 2z"/>
<path d="M3454 4415 c-116 -31 -200 -98 -250 -201 -35 -69 -37 -81 -37 -162 0
-79 3 -96 33 -160 63 -137 194 -222 340 -222 138 0 287 94 341 215 64 145 34
319 -76 428 -53 53 -94 77 -174 101 -65 19 -109 19 -177 1z m-20 -217 c22 -31
20 -68 -6 -95 -27 -29 -57 -29 -92 -2 -53 41 -21 119 48 119 25 0 39 -7 50
-22z"/>
<path d="M5382 4414 c-144 -38 -243 -136 -281 -279 -22 -82 -7 -188 41 -273
60 -111 198 -192 323 -192 133 0 268 76 329 186 14 24 32 76 42 115 14 59 15
81 6 130 -16 86 -52 157 -106 212 -55 54 -82 70 -168 98 -71 22 -113 23 -186
3z m-18 -216 c22 -31 20 -68 -6 -95 -29 -31 -64 -29 -99 6 -34 35 -35 37 -9
79 17 27 25 32 59 32 30 0 44 -6 55 -22z"/>
<path d="M3612 3580 c-41 -9 -99 -63 -118 -107 -22 -50 -17 -131 9 -178 36
-64 101 -96 210 -104 4 -1 7 -21 7 -44 0 -64 40 -94 90 -67 13 7 21 26 26 60
l7 50 651 2 c358 2 657 1 664 -1 6 -2 12 -16 12 -33 0 -16 5 -39 11 -51 37
-69 109 -38 109 45 0 23 5 38 13 39 125 7 203 62 225 160 17 71 1 121 -59 181
-37 37 -56 48 -93 53 -55 9 -96 -12 -96 -48 0 -35 16 -50 67 -68 73 -24 93
-89 41 -136 -19 -17 -62 -18 -885 -18 l-865 0 -19 24 c-25 30 -25 85 0 110 11
11 36 23 56 27 54 10 72 57 35 94 -21 21 -43 23 -98 10z"/>
<path d="M6934 2475 c-54 -69 -99 -130 -99 -137 0 -6 13 -20 29 -32 l28 -21
38 44 c21 24 42 42 48 40 6 -2 71 -52 146 -111 74 -60 140 -108 146 -108 11 0
59 49 60 61 0 3 -65 57 -145 120 -79 63 -144 119 -145 126 0 7 14 28 30 46 17
19 30 39 30 45 0 9 -51 52 -62 52 -2 0 -49 -56 -104 -125z"/>
<path d="M1874 2444 c-93 -74 -170 -142 -172 -149 -4 -18 123 -177 158 -198
76 -46 188 -4 205 76 10 44 23 57 55 57 19 0 37 11 59 35 39 44 47 78 31 122
-16 46 -131 191 -151 192 -9 1 -92 -60 -185 -135z m219 -32 c20 -26 37 -56 37
-67 0 -26 -18 -45 -42 -45 -20 0 -98 77 -98 97 0 13 48 63 60 62 3 0 22 -21
43 -47z m-139 -116 c34 -41 44 -78 28 -102 -12 -18 -50 -34 -66 -28 -19 7 -86
89 -86 105 0 15 60 68 77 69 6 0 28 -20 47 -44z"/>
<path d="M6624 2140 c-54 -50 -100 -98 -102 -105 -2 -8 7 -25 20 -38 42 -42
232 -249 257 -278 13 -16 28 -29 34 -29 5 0 39 29 76 64 36 35 81 76 99 91 17
15 32 32 32 39 0 14 -42 56 -55 56 -5 0 -37 -27 -70 -60 -39 -39 -66 -59 -76
-55 -8 4 -27 22 -43 42 l-29 34 62 63 61 62 -29 28 -30 29 -57 -52 c-32 -28
-63 -51 -69 -51 -13 0 -55 42 -55 56 0 5 30 37 67 71 l68 62 -31 31 -30 31
-100 -91z"/>
<path d="M2360 2180 c-8 -10 -77 -87 -154 -170 -160 -175 -158 -140 -13 -273
l88 -80 31 30 30 30 -73 71 -73 70 110 118 c165 180 153 159 119 194 -33 35
-44 36 -65 10z"/>
<path d="M6338 1903 c-42 -28 -49 -45 -75 -185 -10 -57 -23 -98 -30 -98 -6 0
-23 19 -37 43 -14 23 -36 55 -49 71 l-24 29 -31 -23 c-18 -13 -32 -29 -32 -35
0 -18 240 -384 252 -385 4 0 23 9 42 21 40 23 39 30 -10 96 -28 37 -39 82 -25
102 8 13 27 10 124 -17 62 -18 119 -32 124 -32 14 0 93 51 93 60 0 4 -15 10
-32 13 -18 4 -76 18 -128 33 -52 14 -108 29 -123 31 -16 3 -31 11 -33 18 -3 6
7 68 21 137 34 170 35 164 -27 121z"/>
<path d="M2645 1685 c-104 -74 -191 -141 -193 -148 -1 -7 13 -22 33 -33 38
-20 38 -20 111 26 19 12 30 8 108 -44 95 -61 92 -56 70 -136 -2 -8 0 -19 4
-25 11 -15 73 -57 78 -53 4 5 21 87 34 168 16 99 51 295 56 312 6 20 -59 68
-91 67 -11 0 -105 -61 -210 -134z m180 -52 c-10 -79 -15 -93 -30 -93 -17 0
-95 49 -95 59 0 10 104 80 118 81 10 0 12 -12 7 -47z"/>
<path d="M5740 1564 c-8 -3 -34 -15 -58 -25 -24 -11 -61 -27 -83 -36 -48 -19
-48 -22 8 -147 20 -45 44 -100 54 -123 11 -24 31 -72 45 -108 28 -70 40 -83
57 -66 6 6 19 11 29 11 24 0 33 25 20 53 -37 79 -53 121 -50 136 5 25 43 25
85 -2 21 -13 67 -39 103 -59 l65 -35 43 19 c23 10 42 23 42 27 0 5 -26 23 -57
39 -119 62 -143 77 -143 89 0 6 4 14 9 18 17 10 24 91 12 128 -18 54 -53 80
-113 83 -29 2 -60 1 -68 -2z m79 -98 c24 -29 9 -69 -34 -93 -54 -29 -71 -28
-83 5 -5 15 -13 35 -17 45 -6 13 2 21 36 37 52 23 82 25 98 6z"/>
<path d="M3325 1546 c-5 -2 -22 -7 -36 -10 -43 -9 -113 -71 -139 -122 -20 -38
-25 -62 -25 -119 1 -89 33 -152 103 -196 39 -25 56 -29 113 -29 37 0 83 7 103
15 l36 15 -20 40 c-18 35 -23 39 -40 30 -10 -5 -41 -10 -69 -10 -46 0 -55 4
-91 40 -38 38 -40 43 -40 100 0 57 2 62 43 105 42 43 46 45 100 45 53 0 60 -3
98 -41 l40 -40 34 21 c33 21 34 23 21 48 -15 29 -46 59 -88 85 -25 16 -122 31
-143 23z"/>
<path d="M3746 1411 c-1 -3 -8 -35 -15 -71 -7 -36 -16 -83 -21 -105 -5 -22
-19 -85 -30 -140 -11 -55 -22 -109 -26 -120 -4 -17 2 -22 38 -32 52 -15 62 -5
72 66 7 50 37 101 60 101 7 0 23 -19 35 -42 12 -24 41 -74 64 -113 41 -68 43
-70 92 -77 27 -4 51 -5 53 -3 2 2 -12 29 -32 59 -20 31 -36 59 -36 61 0 3 -11
24 -26 46 -39 62 -64 109 -64 119 0 6 52 44 115 86 63 43 115 81 115 85 0 9
-47 20 -87 21 -19 0 -61 -22 -126 -66 -53 -36 -102 -66 -107 -66 -14 0 -12 34
5 105 8 32 12 62 9 64 -10 10 -84 29 -88 22z"/>
<path d="M5162 1379 c-18 -6 -34 -15 -36 -22 -2 -7 -11 -55 -21 -107 -9 -52
-21 -115 -26 -140 -29 -148 -40 -223 -32 -230 4 -4 26 -5 48 -1 33 5 41 11 43
31 9 72 21 88 75 100 29 6 72 16 96 22 47 12 55 7 105 -63 14 -21 18 -21 60
-9 26 7 46 14 46 16 0 4 -33 54 -70 108 -234 338 -212 316 -288 295z m102
-194 c39 -60 39 -75 0 -75 -14 0 -35 -5 -46 -11 -34 -19 -42 2 -28 75 7 39 17
66 25 66 7 0 29 -25 49 -55z"/>
<path d="M4300 1086 c0 -226 1 -234 20 -239 11 -3 33 -2 48 2 l27 7 5 145 c6
162 -3 157 80 52 35 -46 45 -53 75 -53 31 0 40 7 81 63 25 34 49 69 54 77 17
30 23 -2 26 -140 2 -77 5 -144 8 -148 2 -4 23 -6 45 -4 l41 4 0 234 0 234 -44
0 c-42 0 -46 -3 -93 -62 -27 -35 -62 -82 -78 -105 -15 -24 -33 -43 -39 -43 -7
0 -47 47 -89 105 l-77 105 -45 0 -45 0 0 -234z"/>
</g>
</svg>
